<svg width="368" height="67" viewBox="0 0 368 67" fill="none" xmlns="http://www.w3.org/2000/svg">
<path d="M367.25 0.204718H0V66.6797H367.25V0.204718Z" fill="#FF267E"/>
<path d="M118.813 32.2124H96.9282V25.7477H123.402V16.8235H84.2385V50.061H96.9282V41.1367H118.813V32.2124Z" fill="#000055"/>
<path d="M188.369 38.9596L176.758 16.8235H162.19L181.053 50.061H195.506L214.353 16.8235H199.998L188.369 38.9596Z" fill="#000055"/>
<path d="M255.036 33.1763C257.938 32.0313 259.881 29.1978 259.935 26.0303C259.935 20.5793 255.411 16.8235 246.51 16.8235H217.783V50.061H247.18C256.734 50.061 260.98 46.222 260.98 40.6548C260.915 37.547 259.069 34.7385 255.036 33.1763ZM230.146 24.8669H244.306C244.467 24.8337 244.632 24.8171 244.797 24.8171C246.169 24.8171 247.296 25.9654 247.296 27.3598C247.296 28.7541 246.169 29.9024 244.797 29.9024C244.632 29.9024 244.467 29.8858 244.306 29.8526H230.146V24.8669ZM245.334 42.1504H230.146V37.1648H245.334C245.496 37.1316 245.661 37.115 245.826 37.115C247.198 37.115 248.325 38.2633 248.325 39.6576C248.325 41.0519 247.198 42.2003 245.826 42.2003C245.661 42.2003 245.496 42.1837 245.334 42.1504Z" fill="#000055"/>
<path d="M279.631 37.0485H301.483V29.8359H279.631V25.7477H303.785V16.8235H266.941V50.061H304.357V41.1367H279.631V37.0485Z" fill="#000055"/>
<path d="M309.599 16.8235V25.7477H323.841V50.061H336.677V25.7477H350.902V16.8235H309.599Z" fill="#000055"/>
<path d="M138.15 16.8235L119.303 50.061H132.793L135.341 45.1584H155.494L158.042 50.061H172.087L153.224 16.8235H138.15ZM139.783 36.5333L145.352 25.8308L150.921 36.5333H139.783Z" fill="#000055"/>
<path d="M16.4294 29.8526L27.682 50.061H42.1355L30.8666 29.8526H16.4294Z" fill="#000055"/>
<path d="M53.3883 29.8526L42.1357 50.061H56.5729L67.8255 29.8526H53.3883Z" fill="#000055"/>
<path d="M42.1358 9.69406L30.8669 29.8526H53.3883L42.1358 9.69406Z" fill="#000055"/>
</svg>
